<?xml version="1.0" encoding="utf-8"?>
<!-- Generator: Adobe Illustrator 26.2.0, SVG Export Plug-In . SVG Version: 6.00 Build 0)  -->
<svg version="1.1" xmlns="http://www.w3.org/2000/svg" xmlns:xlink="http://www.w3.org/1999/xlink" x="0px" y="0px"
	 viewBox="0 0 200 200" style="enable-background:new 0 0 200 200;" xml:space="preserve">
<style type="text/css">
	.st0{display:none;}
	.st1{display:inline;}
	.st2{fill-rule:evenodd;clip-rule:evenodd;fill:#2B2E3A;}
	.st3{fill:#9FEAF9;}
	.st4{fill:#5C6179;}
	.st5{clip-path:url(#SVGID_00000147219505754584176740000014189713944302001854_);}
	.st6{fill:#7E9CAB;}
	.st7{clip-path:url(#SVGID_00000043417488835725802840000001496818563296345489_);}
	.st8{fill-rule:evenodd;clip-rule:evenodd;fill:none;}
	.st9{fill:#BAB9C1;}
	.st10{clip-path:url(#SVGID_00000179614106886416527970000006056142988590769293_);}
	.st11{fill:#CAD8DB;}
</style>
<g id="레이어_1" class="st0">
	<g class="st1">
		<circle class="st2" cx="98.5" cy="74.2" r="19.8"/>
		<g>
			<path class="st3" d="M94.2,65.4c-4-0.7-7.2,0-8.5,2.2c-0.9,1.6-0.7,3.8,0.7,6.1c0.1,0.2,0.4,0.3,0.6,0.2c0.2-0.1,0.3-0.4,0.2-0.6
				c0,0,0,0,0,0c-1.2-2.1-1.4-4-0.7-5.3c1.1-1.8,3.9-2.5,7.6-1.8c0.2,0,0.4-0.1,0.5-0.3C94.6,65.7,94.5,65.5,94.2,65.4z M88.5,76.6
				c1.6,1.8,3.7,3.5,6.2,4.9c5.8,3.4,12.1,4.3,15.1,2.2c0.2-0.1,0.2-0.4,0.1-0.6s-0.4-0.2-0.6-0.1c0,0,0,0,0,0
				c-2.7,1.9-8.7,1-14.3-2.2c-2.3-1.4-4.4-3-6-4.7c-0.2-0.2-0.4-0.2-0.6,0C88.4,76.2,88.3,76.5,88.5,76.6
				C88.5,76.6,88.5,76.6,88.5,76.6z"/>
			<path class="st3" d="M108.8,76.1c2.6-3.1,3.6-6.3,2.3-8.5c-0.9-1.6-2.9-2.5-5.5-2.5c-0.2,0-0.4,0.2-0.4,0.4
				c0,0.2,0.2,0.4,0.4,0.4c2.4,0,4.1,0.8,4.8,2.1c1.1,1.8,0.2,4.6-2.2,7.5c-0.1,0.2-0.1,0.4,0,0.6C108.4,76.3,108.7,76.3,108.8,76.1
				C108.8,76.1,108.8,76.1,108.8,76.1z M102,65.6c-2.4,0.5-4.9,1.5-7.4,2.9c-6,3.5-10,8.6-9.4,12.4c0,0.2,0.2,0.4,0.5,0.4
				c0.2,0,0.4-0.2,0.4-0.5c0,0,0,0,0,0c-0.5-3.3,3.2-8.2,9-11.5c2.4-1.4,4.8-2.3,7.1-2.8c0.2,0,0.4-0.3,0.3-0.5
				C102.5,65.7,102.3,65.5,102,65.6C102.1,65.6,102,65.6,102,65.6L102,65.6z"/>
			<path class="st3" d="M92.3,83.4c1.4,3.9,3.6,6.2,6.2,6.2c1.9,0,3.6-1.3,4.9-3.5c0.1-0.2,0.1-0.4-0.1-0.6
				c-0.2-0.1-0.4-0.1-0.6,0.1c0,0,0,0,0,0c-1.2,2-2.7,3.1-4.2,3.1c-2.1,0-4.1-2.1-5.4-5.7c-0.1-0.2-0.3-0.3-0.5-0.3
				C92.3,83,92.2,83.2,92.3,83.4C92.3,83.4,92.3,83.4,92.3,83.4L92.3,83.4z M104.9,82.7c0.7-2.3,1.1-4.9,1.1-7.7
				c0-6.8-2.4-12.8-5.8-14.3c-0.2-0.1-0.5,0-0.5,0.2c-0.1,0.2,0,0.4,0.2,0.5c3,1.4,5.3,7,5.3,13.5c0,2.7-0.4,5.2-1.1,7.4
				c-0.1,0.2,0,0.5,0.3,0.5C104.6,83,104.8,82.9,104.9,82.7C104.9,82.7,104.9,82.7,104.9,82.7L104.9,82.7z M112.7,82.3
				c0-1.1-0.9-2-2-2c-1.1,0-2,0.9-2,2c0,1.1,0.9,2,2,2C111.8,84.2,112.7,83.4,112.7,82.3z M111.8,82.3c0,0.6-0.5,1.2-1.2,1.2
				c-0.6,0-1.2-0.5-1.2-1.2s0.5-1.2,1.2-1.2C111.3,81.1,111.8,81.6,111.8,82.3z M86.2,84.2c1.1,0,2-0.9,2-2c0-1.1-0.9-2-2-2
				c-1.1,0-2,0.9-2,2C84.2,83.4,85.1,84.2,86.2,84.2z M86.2,83.4c-0.6,0-1.2-0.5-1.2-1.2c0-0.6,0.5-1.2,1.2-1.2
				c0.6,0,1.2,0.5,1.2,1.2C87.3,82.9,86.8,83.4,86.2,83.4z"/>
			<path class="st3" d="M98.4,62.8c1.1,0,2-0.9,2-2s-0.9-2-2-2c-1.1,0-2,0.9-2,2S97.3,62.8,98.4,62.8z M98.4,61.9
				c-0.6,0-1.2-0.5-1.2-1.2c0-0.6,0.5-1.2,1.2-1.2s1.2,0.5,1.2,1.2C99.6,61.4,99.1,61.9,98.4,61.9z M98.7,76.4
				c-0.8,0.2-1.5-0.3-1.7-1.1c-0.2-0.8,0.3-1.5,1.1-1.7c0.8-0.2,1.5,0.3,1.7,1.1C100,75.5,99.5,76.2,98.7,76.4z"/>
		</g>
	</g>
	<g class="st1">
		<ellipse class="st4" cx="99.5" cy="137" rx="57" ry="19.4"/>
		<path d="M99.5,118.1c31.2,0,56.5,8.5,56.5,18.9S130.7,156,99.5,156S43,147.5,43,137S68.3,118.1,99.5,118.1 M99.5,117.1
			c-32.2,0-57.5,8.8-57.5,19.9S67.3,157,99.5,157S157,148.2,157,137S131.7,117.1,99.5,117.1L99.5,117.1z"/>
	</g>
	<g class="st1">
		<path class="st4" d="M99.2,141c-34.7,0-39.2-6.2-39.3-6.5l-0.1-0.2L73.9,91h50.5l14.2,43.2l-0.1,0.2
			C138.3,134.7,133.8,141,99.2,141z"/>
		<path d="M124,91.5l14,42.6c0,0-4.1,6.3-38.9,6.3s-38.9-6.3-38.9-6.3l14-42.6h24.9H124 M124.8,90.5H124H99.2H74.3h-0.7l-0.2,0.7
			l-14,42.6l-0.2,0.5l0.3,0.4c0.5,0.7,5.4,6.7,39.8,6.7s39.3-6,39.8-6.7l0.3-0.4l-0.2-0.5l-14-42.6L124.8,90.5L124.8,90.5z"/>
	</g>
	<g class="st1">
		<defs>
			<path id="SVGID_1_" d="M124,91.5H99.2H74.3l-14,42.6c0,0,4.1,6.3,38.9,6.3s38.9-6.3,38.9-6.3L124,91.5z"/>
		</defs>
		<clipPath id="SVGID_00000120526697498055963650000018223539111698510003_">
			<use xlink:href="#SVGID_1_"  style="overflow:visible;"/>
		</clipPath>
		<g style="clip-path:url(#SVGID_00000120526697498055963650000018223539111698510003_);">
			<path class="st6" d="M57,145.4v-28l0.8,0.6c0.1,0.1,10,7.4,41.4,7.4c31.4,0,41.3-7.3,41.4-7.4l0.8-0.6l0,28H57z"/>
			<path d="M140.8,118.4v26.5H57.5v-26.5c0,0,9.6,7.5,41.7,7.5S140.8,118.4,140.8,118.4 M141.8,116.4l-1.6,1.3
				c-0.1,0.1-10,7.3-41.1,7.3c-31.2,0-41-7.2-41.1-7.3l-1.6-1.2l0,2v26.5v1h1h83.4h1v-1v-26.5V116.4L141.8,116.4z"/>
		</g>
	</g>
</g>
<g id="레이어_2" class="st0">
	<g class="st1">
		<ellipse class="st4" cx="100" cy="131.5" rx="57" ry="19.4"/>
		<path d="M100,112.5c31.2,0,56.5,8.5,56.5,18.9c0,10.5-25.3,18.9-56.5,18.9s-56.5-8.5-56.5-18.9C43.5,121,68.8,112.5,100,112.5
			 M100,111.5c-32.2,0-57.5,8.8-57.5,19.9c0,11.2,25.3,19.9,57.5,19.9s57.5-8.8,57.5-19.9C157.5,120.3,132.3,111.5,100,111.5
			L100,111.5z"/>
	</g>
	<g class="st1">
		<path class="st4" d="M99.7,135.4c-34.7,0-39.2-6.2-39.3-6.5l-0.1-0.2l14.2-43.2h50.5l14.2,43.2l-0.1,0.2
			C138.9,129.2,134.4,135.4,99.7,135.4z"/>
		<path d="M124.6,86l14,42.6c0,0-4.1,6.3-38.9,6.3s-38.9-6.3-38.9-6.3l14-42.6h24.9H124.6 M125.3,85h-0.7H99.7H74.8h-0.7l-0.2,0.7
			l-14,42.6l-0.2,0.5l0.3,0.4c0.5,0.7,5.4,6.7,39.8,6.7s39.3-6,39.8-6.7l0.3-0.4l-0.2-0.5l-14-42.6L125.3,85L125.3,85z"/>
	</g>
	<g class="st1">
		<defs>
			<path id="SVGID_00000159472434420230178140000015397008131540646071_" d="M124.6,86H99.7H74.8l-14,42.6c0,0,4.1,6.3,38.9,6.3
				s38.9-6.3,38.9-6.3L124.6,86z"/>
		</defs>
		<clipPath id="SVGID_00000177448934310013069800000017395667223622675335_">
			<use xlink:href="#SVGID_00000159472434420230178140000015397008131540646071_"  style="overflow:visible;"/>
		</clipPath>
		<g style="clip-path:url(#SVGID_00000177448934310013069800000017395667223622675335_);">
			<path class="st6" d="M57.5,139.9v-28l0.8,0.6c0.1,0.1,10,7.4,41.4,7.4s41.3-7.3,41.4-7.4l0.8-0.6l0,28H57.5z"/>
			<path d="M141.4,112.9v26.5H58v-26.5c0,0,9.6,7.5,41.7,7.5S141.4,112.9,141.4,112.9 M142.4,110.8l-1.6,1.3
				c-0.1,0.1-10,7.3-41.1,7.3c-31.2,0-41-7.2-41.1-7.3l-1.6-1.2l0,2v26.5v1h1h83.4h1v-1v-26.5V110.8L142.4,110.8z"/>
		</g>
	</g>
	<g class="st1">
		<circle class="st8" cx="99" cy="102.6" r="15.4"/>
		<g>
			<path class="st3" d="M95.7,95.9c-3.1-0.6-5.6,0-6.6,1.7c-0.7,1.3-0.5,3,0.5,4.8c0.1,0.2,0.3,0.2,0.4,0.1c0.2-0.1,0.2-0.3,0.1-0.4
				c0,0,0,0,0,0c-0.9-1.6-1.1-3.1-0.5-4.1c0.8-1.4,3-1.9,5.9-1.4c0.2,0,0.3-0.1,0.4-0.3C96,96.1,95.9,95.9,95.7,95.9z M91.3,104.5
				c1.3,1.4,2.9,2.7,4.8,3.8c4.5,2.6,9.4,3.3,11.7,1.7c0.1-0.1,0.2-0.3,0.1-0.4s-0.3-0.2-0.4-0.1c0,0,0,0,0,0
				c-2.1,1.5-6.7,0.8-11.1-1.7c-1.8-1-3.4-2.3-4.6-3.6c-0.1-0.1-0.3-0.1-0.5,0C91.2,104.2,91.2,104.4,91.3,104.5
				C91.3,104.5,91.3,104.5,91.3,104.5z"/>
			<path class="st3" d="M107,104.2c2-2.4,2.8-4.8,1.8-6.5c-0.7-1.3-2.3-1.9-4.3-1.9c-0.2,0-0.3,0.1-0.3,0.3c0,0.2,0.1,0.3,0.3,0.3
				c1.8,0,3.1,0.6,3.7,1.6c0.8,1.4,0.2,3.6-1.7,5.8c-0.1,0.1-0.1,0.3,0,0.5C106.7,104.3,106.9,104.3,107,104.2
				C107,104.2,107,104.2,107,104.2z M101.8,96c-1.8,0.4-3.8,1.2-5.7,2.3c-4.7,2.7-7.7,6.7-7.3,9.6c0,0.2,0.2,0.3,0.4,0.3
				s0.3-0.2,0.3-0.4c0,0,0,0,0,0c-0.4-2.6,2.5-6.3,7-8.9c1.8-1.1,3.7-1.8,5.5-2.2c0.2,0,0.3-0.2,0.3-0.4C102.1,96,102,95.9,101.8,96
				C101.8,96,101.8,96,101.8,96L101.8,96z"/>
			<path class="st3" d="M94.2,109.8c1.1,3,2.8,4.8,4.8,4.8c1.4,0,2.8-1,3.8-2.7c0.1-0.2,0-0.3-0.1-0.4c-0.2-0.1-0.3,0-0.4,0.1
				c0,0,0,0,0,0c-0.9,1.5-2.1,2.4-3.2,2.4c-1.6,0-3.2-1.6-4.2-4.4c-0.1-0.2-0.2-0.3-0.4-0.2C94.2,109.4,94.1,109.6,94.2,109.8
				C94.2,109.8,94.2,109.8,94.2,109.8L94.2,109.8z M104,109.2c0.6-1.8,0.9-3.8,0.9-5.9c0-5.3-1.9-9.9-4.5-11.1
				c-0.2-0.1-0.4,0-0.4,0.2c-0.1,0.2,0,0.3,0.2,0.4c2.4,1,4.1,5.4,4.1,10.5c0,2.1-0.3,4-0.8,5.7c-0.1,0.2,0,0.3,0.2,0.4
				C103.7,109.5,103.9,109.4,104,109.2C104,109.2,104,109.2,104,109.2L104,109.2z M110,108.9c0-0.8-0.7-1.5-1.5-1.5
				c-0.8,0-1.5,0.7-1.5,1.5c0,0.8,0.7,1.5,1.5,1.5C109.3,110.4,110,109.7,110,108.9z M109.4,108.9c0,0.5-0.4,0.9-0.9,0.9
				c-0.5,0-0.9-0.4-0.9-0.9c0-0.5,0.4-0.9,0.9-0.9C109,108,109.4,108.4,109.4,108.9z M89.5,110.4c0.8,0,1.5-0.7,1.5-1.5
				c0-0.8-0.7-1.5-1.5-1.5c-0.8,0-1.5,0.7-1.5,1.5C87.9,109.7,88.6,110.4,89.5,110.4z M89.5,109.8c-0.5,0-0.9-0.4-0.9-0.9
				c0-0.5,0.4-0.9,0.9-0.9c0.5,0,0.9,0.4,0.9,0.9C90.4,109.4,90,109.8,89.5,109.8z"/>
			<path class="st3" d="M99,93.8c0.8,0,1.5-0.7,1.5-1.5c0-0.8-0.7-1.5-1.5-1.5c-0.8,0-1.5,0.7-1.5,1.5C97.5,93.1,98.1,93.8,99,93.8z
				 M99,93.1c-0.5,0-0.9-0.4-0.9-0.9c0-0.5,0.4-0.9,0.9-0.9c0.5,0,0.9,0.4,0.9,0.9C99.9,92.7,99.5,93.1,99,93.1z M99.2,104.4
				c-0.6,0.1-1.2-0.3-1.3-0.9c-0.1-0.6,0.3-1.2,0.9-1.3c0.6-0.1,1.2,0.3,1.3,0.9C100.2,103.6,99.8,104.2,99.2,104.4z"/>
		</g>
	</g>
</g>
<g id="레이어_3">
	<g>
		<g>
			<circle class="st2" cx="100" cy="118.3" r="57.8"/>
			<path d="M100,176.6c-32.2,0-58.3-26.2-58.3-58.3S67.9,60,100,60c32.2,0,58.3,26.2,58.3,58.3S132.2,176.6,100,176.6z M100,61
				c-31.6,0-57.3,25.7-57.3,57.3c0,31.6,25.7,57.3,57.3,57.3s57.3-25.7,57.3-57.3C157.4,86.7,131.6,61,100,61z"/>
		</g>
		<g>
			<path class="st3" d="M87.6,92.9c-11.7-2.1-21,0.1-24.7,6.5c-2.8,4.8-2,11.1,1.9,17.9c0.3,0.6,1.1,0.8,1.6,0.5
				c0.6-0.3,0.8-1.1,0.5-1.6c0,0,0,0,0,0c-3.5-6.1-4.2-11.6-1.9-15.5c3.1-5.3,11.4-7.3,22.2-5.3c0.7,0.1,1.3-0.3,1.4-1
				C88.7,93.6,88.3,93,87.6,92.9z M70.9,125.5c4.8,5.2,10.9,10.1,18,14.2c17,9.8,35.2,12.5,44.1,6.4c0.6-0.4,0.7-1.1,0.3-1.7
				c-0.4-0.6-1.1-0.7-1.7-0.3c0,0,0,0,0,0c-8,5.5-25.2,3-41.6-6.5c-6.8-3.9-12.8-8.7-17.4-13.7c-0.4-0.5-1.2-0.5-1.7-0.1
				C70.5,124.3,70.4,125,70.9,125.5C70.9,125.5,70.9,125.5,70.9,125.5z"/>
			<path class="st3" d="M130.1,124.1c7.7-9.1,10.4-18.2,6.7-24.6c-2.7-4.7-8.5-7.2-16.1-7.3c-0.7,0-1.2,0.5-1.2,1.2
				c0,0.7,0.5,1.2,1.2,1.2c6.9,0.1,11.8,2.2,14,6.1c3.1,5.3,0.7,13.5-6.4,21.9c-0.4,0.5-0.4,1.3,0.1,1.7
				C128.9,124.6,129.7,124.6,130.1,124.1C130.1,124.1,130.1,124.1,130.1,124.1z M110.4,93.3c-7,1.5-14.4,4.4-21.5,8.5
				c-17.6,10.2-29.1,25.1-27.5,36c0.1,0.7,0.7,1.1,1.4,1s1.1-0.7,1-1.4c0,0,0,0,0,0c-1.4-9.6,9.5-23.8,26.3-33.6
				c6.9-4,14.1-6.8,20.8-8.2c0.7-0.1,1.1-0.8,0.9-1.4S111.1,93.1,110.4,93.3C110.4,93.3,110.4,93.3,110.4,93.3L110.4,93.3z"/>
			<path class="st3" d="M81.9,145.3c4,11.2,10.6,18.1,18,18.1c5.4,0,10.4-3.7,14.3-10.2c0.4-0.6,0.2-1.3-0.4-1.7
				c-0.6-0.4-1.3-0.2-1.7,0.4c0,0,0,0,0,0c-3.5,5.8-7.8,9-12.2,9c-6.1,0-12-6.2-15.7-16.5c-0.2-0.6-0.9-1-1.5-0.8
				C82,143.9,81.6,144.6,81.9,145.3C81.9,145.3,81.9,145.3,81.9,145.3L81.9,145.3z M118.6,143.1c2.1-6.7,3.2-14.3,3.2-22.3
				c0-20-7-37.2-16.9-41.6c-0.6-0.3-1.3,0-1.6,0.6c-0.2,0.6,0,1.3,0.6,1.6c8.9,3.9,15.5,20.3,15.5,39.4c0,7.8-1.1,15.2-3.1,21.6
				c-0.2,0.6,0.1,1.3,0.8,1.5C117.7,144.1,118.4,143.8,118.6,143.1C118.6,143.1,118.6,143.1,118.6,143.1L118.6,143.1z M141.3,141.9
				c0-3.2-2.6-5.8-5.8-5.8c-3.2,0-5.8,2.6-5.8,5.8c0,3.2,2.6,5.8,5.8,5.8C138.7,147.7,141.3,145.1,141.3,141.9z M138.9,141.9
				c0,1.9-1.5,3.4-3.4,3.4s-3.4-1.5-3.4-3.4s1.5-3.4,3.4-3.4S138.9,140.1,138.9,141.9z M64.1,147.7c3.2,0,5.8-2.6,5.8-5.8
				c0-3.2-2.6-5.8-5.8-5.8c-3.2,0-5.8,2.6-5.8,5.8C58.4,145.1,60.9,147.7,64.1,147.7z M64.1,145.3c-1.9,0-3.4-1.5-3.4-3.4
				c0-1.9,1.5-3.4,3.4-3.4s3.4,1.5,3.4,3.4C67.5,143.8,66,145.3,64.1,145.3z"/>
			<path class="st3" d="M99.9,85.1c3.2,0,5.8-2.6,5.8-5.8c0-3.2-2.6-5.8-5.8-5.8c-3.2,0-5.8,2.6-5.8,5.8
				C94.1,82.5,96.7,85.1,99.9,85.1z M99.9,82.7c-1.9,0-3.4-1.5-3.4-3.4s1.5-3.4,3.4-3.4s3.4,1.5,3.4,3.4S101.7,82.7,99.9,82.7z
				 M100.7,124.8c-2.3,0.5-4.5-0.9-5-3.2c-0.5-2.3,0.9-4.5,3.2-5c2.3-0.5,4.5,0.9,5,3.2C104.4,122.1,103,124.4,100.7,124.8z"/>
		</g>
	</g>
	<g>
		<ellipse class="st9" cx="100" cy="91.7" rx="83" ry="27.8"/>
		<path d="M100,63.8c45.8,0,83,12.5,83,27.8s-37.1,27.8-83,27.8s-83-12.5-83-27.8S54.2,63.8,100,63.8 M100,62.8
			c-22.3,0-43.2,2.9-59,8.2c-16.1,5.4-25,12.7-25,20.6s8.9,15.2,25,20.6c15.8,5.3,36.7,8.2,59,8.2s43.2-2.9,59-8.2
			c16.1-5.4,25-12.7,25-20.6s-8.9-15.2-25-20.6C143.2,65.7,122.3,62.8,100,62.8L100,62.8z"/>
	</g>
	<g>
		<path class="st9" d="M136.1,24.9H99.5H63L42.4,87.5c0,0,6.1,9.2,57.2,9.2s57.2-9.2,57.2-9.2L136.1,24.9z"/>
		<path d="M136.1,24.9l20.6,62.6c0,0-6.1,9.2-57.2,9.2s-57.2-9.2-57.2-9.2L63,24.9h36.5H136.1 M136.8,23.9h-0.7H99.5H63h-0.7
			L62,24.6L41.4,87.2l-0.2,0.5l0.3,0.4c0.3,0.4,7,9.7,58,9.7s57.7-9.3,58-9.7l0.3-0.4l-0.2-0.5L137,24.6L136.8,23.9L136.8,23.9z"/>
	</g>
	<g>
		<defs>
			<path id="SVGID_00000170239758799210026560000012302373012848356537_" d="M136.1,24.9H99.5H63L42.4,87.5c0,0,6.1,9.2,57.2,9.2
				s57.2-9.2,57.2-9.2L136.1,24.9z"/>
		</defs>
		<clipPath id="SVGID_00000085958430509565914140000017781031786975678383_">
			<use xlink:href="#SVGID_00000170239758799210026560000012302373012848356537_"  style="overflow:visible;"/>
		</clipPath>
		<g style="clip-path:url(#SVGID_00000085958430509565914140000017781031786975678383_);">
			<path class="st11" d="M160.7,103.3H38.3v-39c0,0,14.2,11,61.2,11s61.2-11,61.2-11V103.3z"/>
			<path d="M160.7,64.3v39H38.3v-39c0,0,14.2,11,61.2,11S160.7,64.3,160.7,64.3 M161.7,62.3l-1.6,1.3l0,0
				c-0.1,0.1-14.6,10.8-60.6,10.8S39.1,63.7,38.9,63.6l-1.6-1.2l0,2v39v1h1h122.4h1v-1v-39V62.3L161.7,62.3z"/>
		</g>
	</g>
</g>
</svg>
